<?xml version="1.0" encoding="UTF-8" standalone="no"?>
<!DOCTYPE svg PUBLIC "-//W3C//DTD SVG 1.1//EN" "http://www.w3.org/Graphics/SVG/1.1/DTD/svg11.dtd">
<svg width="100%" height="100%" viewBox="0 0 73 81" version="1.1" xmlns="http://www.w3.org/2000/svg" xmlns:xlink="http://www.w3.org/1999/xlink" xml:space="preserve" xmlns:serif="http://www.serif.com/" style="fill-rule:evenodd;clip-rule:evenodd;stroke-linejoin:round;stroke-miterlimit:2;">
    <g transform="matrix(1,0,0,1,-134,-87)">
        <path id="A" d="M144.285,166.546C145.881,165.977 147.253,164.912 148.2,163.508C154.523,154.142 179.41,117.276 183.286,111.533C183.371,111.407 183.524,111.344 183.674,111.375C183.823,111.405 183.939,111.523 183.968,111.672C185.179,117.902 192.357,154.84 193.752,162.019C193.907,162.816 194.231,163.57 194.701,164.231C194.747,164.297 194.796,164.365 194.846,164.435C196.363,166.569 199.003,167.597 201.564,167.05C204.124,166.504 206.115,164.487 206.628,161.92C206.629,161.919 206.629,161.918 206.629,161.917C206.694,161.591 206.69,161.256 206.618,160.932C205.25,154.821 191.571,93.722 190.833,90.427C190.813,90.335 190.781,90.246 190.739,90.162C190.738,90.162 190.738,90.162 190.738,90.161C189.906,88.506 188.324,87.355 186.492,87.072C184.66,86.789 182.805,87.409 181.512,88.737C181.385,88.867 181.274,88.981 181.182,89.076C180.976,89.287 180.789,89.514 180.622,89.756C177.028,94.967 136.018,154.416 136.018,154.416C136.018,154.416 135.843,154.668 135.532,155.117C133.659,157.815 133.743,161.415 135.74,164.023C137.737,166.631 141.19,167.651 144.284,166.547C144.284,166.547 144.285,166.546 144.285,166.546Z"/>
    </g>
</svg>
