<?xml version="1.0" encoding="UTF-8" standalone="no"?>
<!DOCTYPE svg PUBLIC "-//W3C//DTD SVG 1.1//EN" "http://www.w3.org/Graphics/SVG/1.1/DTD/svg11.dtd">
<svg width="100%" height="100%" viewBox="0 0 67 101" version="1.1" xmlns="http://www.w3.org/2000/svg" xmlns:xlink="http://www.w3.org/1999/xlink" xml:space="preserve" xmlns:serif="http://www.serif.com/" style="fill-rule:evenodd;clip-rule:evenodd;stroke-linejoin:round;stroke-miterlimit:2;">
    <g transform="matrix(1,0,0,1,-269,-70)">
        <path id="B" d="M289.889,102.864C291.446,97.525 296.623,81.257 296.956,78.751C297.645,73.546 294.753,72.847 290.653,70.767C282.07,66.413 276.116,82.353 274.822,87.134C269.607,106.409 269.941,112.901 269.556,119.442C268.317,140.512 271.85,170.418 298.897,170.027C313.84,169.81 326.961,156.649 332.265,143.711C334.122,139.181 338.182,129.658 334.39,125.007C332.037,122.12 328.63,122.355 326.351,125.609C320.068,134.58 314.354,153.922 299.594,154.129C296.618,154.171 289.961,153.657 287.256,148.193C283.755,141.122 284.36,137.807 285.093,129.319C286.06,118.126 286.807,113.436 289.889,102.864Z"/>
    </g>
</svg>
