<?xml version="1.0" encoding="UTF-8" standalone="no"?>
<!DOCTYPE svg PUBLIC "-//W3C//DTD SVG 1.1//EN" "http://www.w3.org/Graphics/SVG/1.1/DTD/svg11.dtd">
<svg width="100%" height="100%" viewBox="0 0 75 88" version="1.1" xmlns="http://www.w3.org/2000/svg" xmlns:xlink="http://www.w3.org/1999/xlink" xml:space="preserve" xmlns:serif="http://www.serif.com/" style="fill-rule:evenodd;clip-rule:evenodd;stroke-linejoin:round;stroke-miterlimit:2;">
    <g transform="matrix(1,0,0,1,-414,-69)">
        <path id="C" d="M476.151,73.15C478.132,77.246 475.192,82.072 471.794,83.844C452.17,94.075 428.124,113.175 428.88,132.564C429.516,148.879 452.825,148.906 477.602,133.701C481.435,131.349 486.181,133.161 487.556,136.189C490.056,141.695 485.803,145.841 481.957,147.387C473.885,151.742 465.155,154.284 456.26,155.965C449.836,157.196 443.216,156.941 436.905,155.22C436.285,155.055 435.683,154.875 435.097,154.684C424.411,151.228 416.678,141.918 415.24,130.779C415.01,129.145 415.064,127.626 414.978,126.028C414.357,114.378 421.669,101.46 435.3,89.325C443.388,82.124 450.043,77.205 467.027,69.832C471.68,68.467 474.408,69.548 476.151,73.15Z"/>
    </g>
</svg>
