<?xml version="1.0" encoding="UTF-8" standalone="no"?>
<!DOCTYPE svg PUBLIC "-//W3C//DTD SVG 1.1//EN" "http://www.w3.org/Graphics/SVG/1.1/DTD/svg11.dtd">
<svg width="100%" height="100%" viewBox="0 0 71 82" version="1.1" xmlns="http://www.w3.org/2000/svg" xmlns:xlink="http://www.w3.org/1999/xlink" xml:space="preserve" xmlns:serif="http://www.serif.com/" style="fill-rule:evenodd;clip-rule:evenodd;stroke-linejoin:round;stroke-miterlimit:2;">
    <g transform="matrix(1,0,0,1,-539,-75)">
        <g id="D" transform="matrix(-1.01797,-0.18879,0.170188,-0.917675,1005.53,308.433)">
            <path d="M469.476,74.162C471.457,78.258 468.35,82.796 465.119,84.856C448.617,95.375 429.962,111.381 429.483,128.556C429.191,139.052 447.505,147.096 464.361,142.074C468.67,140.79 472.94,141.534 474.315,144.562C476.814,150.069 472.969,153.908 468.716,155.76C459.538,159.757 452.449,161.484 443.999,160.979C434.588,160.418 417.544,150.19 413.158,139.099C409.846,130.724 409.878,121.372 410.652,118.153C411.268,115.596 410.423,108.8 427.049,90.66C439.071,77.545 458.572,71.366 460.352,70.844C465.004,69.479 467.733,70.56 469.476,74.162Z"/>
        </g>
    </g>
</svg>
