<?xml version="1.0" encoding="UTF-8" standalone="no"?>
<!DOCTYPE svg PUBLIC "-//W3C//DTD SVG 1.1//EN" "http://www.w3.org/Graphics/SVG/1.1/DTD/svg11.dtd">
<svg width="100%" height="100%" viewBox="0 0 108 51" version="1.1" xmlns="http://www.w3.org/2000/svg" xmlns:xlink="http://www.w3.org/1999/xlink" xml:space="preserve" xmlns:serif="http://www.serif.com/" style="fill-rule:evenodd;clip-rule:evenodd;stroke-linejoin:round;stroke-miterlimit:2;">
    <g transform="matrix(1,0,0,1,-660,-72)">
        <path id="E" d="M669.025,72.894C669.025,72.894 743.422,73.337 756.316,73.414C758.65,73.428 760.966,73.838 763.163,74.628C765.705,75.542 766.807,76.86 767.068,79.699C767.355,82.806 763.598,87.631 758.448,87.816C758.448,87.816 693.092,88.712 685.863,88.811C685.481,88.816 685.149,89.076 685.053,89.446C684.049,93.293 678.721,113.716 677.502,118.39C677.308,119.134 676.892,119.8 676.309,120.299C674.312,121.973 671.66,122.844 668.892,122.662C664.098,122.346 662.4,120.291 661.142,117.829C660.742,117.064 660.581,116.196 660.68,115.338C661.423,108.854 664.911,78.733 664.911,78.733C665.201,76.35 664.998,75.232 665.89,74.208C666.894,73.057 667.771,72.891 669.025,72.894Z"/>
    </g>
</svg>
