<?xml version="1.0" encoding="UTF-8" standalone="no"?>
<!DOCTYPE svg PUBLIC "-//W3C//DTD SVG 1.1//EN" "http://www.w3.org/Graphics/SVG/1.1/DTD/svg11.dtd">
<svg width="100%" height="100%" viewBox="0 0 65 102" version="1.1" xmlns="http://www.w3.org/2000/svg" xmlns:xlink="http://www.w3.org/1999/xlink" xml:space="preserve" xmlns:serif="http://www.serif.com/" style="fill-rule:evenodd;clip-rule:evenodd;stroke-linejoin:round;stroke-miterlimit:2;">
    <g transform="matrix(1,0,0,1,-827,-50)">
        <g id="F" transform="matrix(0.976575,0.215177,0.215177,-0.976575,540.176,153.082)">
            <path d="M287.878,97.537C288.933,91.676 291.691,76.2 291.868,74.368C292.369,69.203 291.362,67.246 288.641,65.44C282.444,61.326 277.181,78.62 276.042,82.537C270.444,101.782 270.017,113.129 269.556,119.442C267.926,141.808 278.701,170.67 298.335,169.69C313.387,168.939 322.156,157.541 327.34,143.9C329.079,139.323 333.256,129.847 329.465,125.196C327.112,122.309 323.705,122.544 321.426,125.798C315.143,134.768 311.607,156.586 297.075,153.999C293.948,153.442 290.042,152.562 288.242,147.714C285.698,140.864 285.543,137.735 285.093,129.319C284.493,118.101 285.927,108.375 287.878,97.537Z"/>
        </g>
    </g>
</svg>
