<?xml version="1.0" encoding="UTF-8" standalone="no"?>
<!DOCTYPE svg PUBLIC "-//W3C//DTD SVG 1.1//EN" "http://www.w3.org/Graphics/SVG/1.1/DTD/svg11.dtd">
<svg width="100%" height="100%" viewBox="0 0 61 102" version="1.1" xmlns="http://www.w3.org/2000/svg" xmlns:xlink="http://www.w3.org/1999/xlink" xml:space="preserve" xmlns:serif="http://www.serif.com/" style="fill-rule:evenodd;clip-rule:evenodd;stroke-linejoin:round;stroke-miterlimit:2;">
    <g transform="matrix(1,0,0,1,-1231,-48)">
        <g id="J" transform="matrix(-0.986874,-0.161489,-0.161489,0.986874,1576.22,28.975)">
            <path d="M291.252,102.562C292.231,97.087 296.786,78.657 297.118,76.151C297.808,70.947 294.916,70.247 290.816,68.167C282.232,63.813 278.799,80.162 277.543,84.953C272.482,104.253 270.137,113 269.556,119.442C267.73,139.695 269.714,167.089 294.142,170.324C309.024,172.296 318.895,160.929 323.672,150.575C325.695,146.191 326.83,137.787 323.571,131.507C320.342,125.287 313.233,126.029 312.946,134.892C312.743,141.175 309.996,152.532 299.831,153.011C293.856,153.293 292.382,149.528 291.446,147.537C289.673,143.765 288.743,136.182 288.8,129.137C288.813,127.557 288.62,117.278 291.252,102.562Z"/>
        </g>
    </g>
</svg>
