<?xml version="1.0" encoding="UTF-8" standalone="no"?>
<!DOCTYPE svg PUBLIC "-//W3C//DTD SVG 1.1//EN" "http://www.w3.org/Graphics/SVG/1.1/DTD/svg11.dtd">
<svg width="100%" height="100%" viewBox="0 0 102 51" version="1.1" xmlns="http://www.w3.org/2000/svg" xmlns:xlink="http://www.w3.org/1999/xlink" xml:space="preserve" xmlns:serif="http://www.serif.com/" style="fill-rule:evenodd;clip-rule:evenodd;stroke-linejoin:round;stroke-miterlimit:2;">
    <g transform="matrix(1,0,0,1,-1587,-55)">
        <g id="M" transform="matrix(-1,0,0,1,2359.34,-14.3849)">
            <path d="M674.873,69.993C674.873,69.993 748.044,70.287 760.867,70.338C763.198,70.348 765.511,70.754 767.706,71.54C770.263,72.455 771.371,73.773 771.634,76.62C771.92,79.727 770.652,84.552 763.014,84.737C763.014,84.737 696.349,84.451 688.032,84.416C687.563,84.414 687.181,84.792 687.179,85.26C687.154,89.553 687.042,108.899 687.009,114.629C687.002,115.842 686.411,116.978 685.422,117.679C683.514,119.03 681.123,119.715 678.638,119.551C673.038,119.182 671.063,117.655 671,113.446C671,113.445 671,113.444 671,113.444C671,113.425 670.759,75.832 670.759,75.832C671.049,73.448 670.846,72.331 671.738,71.307C672.741,70.155 673.619,69.99 674.873,69.993Z"/>
        </g>
    </g>
</svg>
