<?xml version="1.0" encoding="UTF-8" standalone="no"?>
<!DOCTYPE svg PUBLIC "-//W3C//DTD SVG 1.1//EN" "http://www.w3.org/Graphics/SVG/1.1/DTD/svg11.dtd">
<svg width="100%" height="100%" viewBox="0 0 84 83" version="1.1" xmlns="http://www.w3.org/2000/svg" xmlns:xlink="http://www.w3.org/1999/xlink" xml:space="preserve" xmlns:serif="http://www.serif.com/" style="fill-rule:evenodd;clip-rule:evenodd;stroke-linejoin:round;stroke-miterlimit:2;">
    <g transform="matrix(1,0,0,1,-1718,-52)">
        <path id="N" d="M1732.61,132.206C1740.48,124.94 1745.91,114.562 1751.24,102.05C1751.33,101.817 1751.58,101.678 1751.83,101.708C1752.08,101.738 1752.28,101.931 1752.32,102.18C1755.16,120.26 1760.44,129.064 1763.8,131.377C1770.77,136.173 1775.44,136.123 1778.98,129.521C1779.12,129.266 1779.23,128.999 1779.32,128.723C1780.85,124.094 1797.94,71.795 1800.99,62.46C1801.32,61.452 1801.36,60.371 1801.11,59.34C1800.16,55.437 1798.82,53.29 1796.92,53.137C1795.96,53.054 1795.04,53.502 1794.51,54.303C1791.71,58.528 1777.57,79.954 1773.51,86.098C1773.34,86.363 1773.02,86.493 1772.71,86.427C1772.4,86.36 1772.16,86.11 1772.11,85.796C1771.16,79.903 1768.35,62.454 1767.73,58.632C1767.45,56.881 1766.66,55.25 1765.47,53.94C1764.6,52.988 1763.63,52.488 1762.56,52.417C1760.88,52.307 1759.3,53.16 1758.46,54.615C1753.46,63.36 1722.88,116.775 1720.05,121.72C1719.88,122.002 1719.75,122.298 1719.63,122.603C1714.72,136.079 1729.59,134.994 1732.61,132.206Z"/>
    </g>
</svg>
