<?xml version="1.0" encoding="UTF-8" standalone="no"?>
<!DOCTYPE svg PUBLIC "-//W3C//DTD SVG 1.1//EN" "http://www.w3.org/Graphics/SVG/1.1/DTD/svg11.dtd">
<svg width="100%" height="100%" viewBox="0 0 105 65" version="1.1" xmlns="http://www.w3.org/2000/svg" xmlns:xlink="http://www.w3.org/1999/xlink" xml:space="preserve" xmlns:serif="http://www.serif.com/" style="fill-rule:evenodd;clip-rule:evenodd;stroke-linejoin:round;stroke-miterlimit:2;">
    <g transform="matrix(1,0,0,1,-428,-269)">
        <g id="Q" transform="matrix(-0.0779498,-0.996957,0.996957,-0.0779498,386.914,611.601)">
            <path d="M287.878,97.537C290.254,84.99 292.727,80.965 294.275,73.516C295.331,68.436 293.768,66.395 291.048,64.588C284.851,60.474 279.733,74.652 277.543,81.348C271.286,100.481 270.358,107.405 269.556,119.442C268.067,141.818 276.395,170.229 296.029,169.25C311.082,168.499 324.643,155.656 329.827,142.014C331.566,137.438 335.744,127.962 331.952,123.31C329.599,120.424 326.836,121.223 323.913,123.912C315.707,131.461 305.962,149.605 294.955,151.586C287.683,152.895 284.381,138.729 285.093,129.319C285.941,118.117 285.829,108.356 287.878,97.537Z"/>
        </g>
    </g>
</svg>
