<?xml version="1.0" encoding="UTF-8" standalone="no"?>
<!DOCTYPE svg PUBLIC "-//W3C//DTD SVG 1.1//EN" "http://www.w3.org/Graphics/SVG/1.1/DTD/svg11.dtd">
<svg width="100%" height="100%" viewBox="0 0 91 81" version="1.1" xmlns="http://www.w3.org/2000/svg" xmlns:xlink="http://www.w3.org/1999/xlink" xml:space="preserve" xmlns:serif="http://www.serif.com/" style="fill-rule:evenodd;clip-rule:evenodd;stroke-linejoin:round;stroke-miterlimit:2;">
    <g transform="matrix(1,0,0,1,-893,-267)">
        <g id="U" transform="matrix(0.762819,-0.687045,0.669238,0.743048,22.4215,712.034)">
            <path d="M932.066,269.322C936.92,265.959 927.749,256.051 919.925,260.833C898.229,274.093 884.297,287.216 884.468,311.133C884.623,332.934 901.778,348.195 920.436,344.07C936.13,340.601 945.251,335.754 952.152,332.954C962.73,328.663 967.57,325.884 979.588,318.693C984.418,315.803 976.288,305.898 971.796,307.883C950.513,317.288 930.926,325.989 911.202,325.155C907.365,324.979 903.79,323.105 901.401,320.018C899.012,316.93 898.042,312.932 898.743,309.055C901.352,294.705 914.91,281.204 932.066,269.322Z"/>
        </g>
    </g>
</svg>
