<?xml version="1.0" encoding="UTF-8" standalone="no"?>
<!DOCTYPE svg PUBLIC "-//W3C//DTD SVG 1.1//EN" "http://www.w3.org/Graphics/SVG/1.1/DTD/svg11.dtd">
<svg width="100%" height="100%" viewBox="0 0 96 80" version="1.1" xmlns="http://www.w3.org/2000/svg" xmlns:xlink="http://www.w3.org/1999/xlink" xml:space="preserve" xmlns:serif="http://www.serif.com/" style="fill-rule:evenodd;clip-rule:evenodd;stroke-linejoin:round;stroke-miterlimit:2;">
    <g transform="matrix(1,0,0,1,-1003,-270)">
        <g id="V" transform="matrix(0.044712,-0.999,0.999,0.044712,883.516,1677.66)">
            <path d="M1401.06,71.186C1380.79,80.179 1367.33,84.771 1354.41,92.449C1353.8,92.815 1353.39,93.435 1353.28,94.139C1353.18,94.843 1353.4,95.555 1353.88,96.08C1365.77,107.129 1407.74,135.446 1412.79,139.814C1418.54,144.781 1413.61,155.454 1404.94,150.795C1391.18,143.402 1351.13,113.378 1339.62,101.999C1335.26,97.692 1333.77,96.63 1334.14,92.495C1334.65,86.69 1371.34,67.464 1402.83,57.737C1406.16,56.707 1410.55,59.534 1409.1,64.045C1408.28,66.564 1405.83,69.071 1401.06,71.186Z"/>
        </g>
    </g>
</svg>
