<?xml version="1.0" encoding="UTF-8" standalone="no"?>
<!DOCTYPE svg PUBLIC "-//W3C//DTD SVG 1.1//EN" "http://www.w3.org/Graphics/SVG/1.1/DTD/svg11.dtd">
<svg width="100%" height="100%" viewBox="0 0 101 101" version="1.1" xmlns="http://www.w3.org/2000/svg" xmlns:xlink="http://www.w3.org/1999/xlink" xml:space="preserve" xmlns:serif="http://www.serif.com/" style="fill-rule:evenodd;clip-rule:evenodd;stroke-linejoin:round;stroke-miterlimit:2;">
    <g transform="matrix(1,0,0,1,-1124,-255)">
        <g id="W" transform="matrix(-0.943782,0.747872,-0.848046,-1.0702,2311.02,-62.8777)">
            <path d="M932.066,269.322C938.124,264.634 925.86,254.18 919.925,260.833C903.828,278.875 888.615,285.421 884.47,307.414C882.493,317.9 889.689,324.086 897.593,329.74C904.82,334.91 912.402,336.582 921.11,337.256C936.102,338.417 970.128,320.372 984.713,303.208C988.146,299.169 980.676,292.571 977.09,295.927C963.249,308.881 943.277,325.712 919.678,326.654C913.145,326.938 906.884,324.322 902.995,319.683C899.106,315.045 898.104,308.999 900.326,303.574C905.251,291.746 917.647,280.477 932.066,269.322Z"/>
        </g>
    </g>
</svg>
