<?xml version="1.0" encoding="UTF-8" standalone="no"?>
<!DOCTYPE svg PUBLIC "-//W3C//DTD SVG 1.1//EN" "http://www.w3.org/Graphics/SVG/1.1/DTD/svg11.dtd">
<svg width="100%" height="100%" viewBox="0 0 100 62" version="1.1" xmlns="http://www.w3.org/2000/svg" xmlns:xlink="http://www.w3.org/1999/xlink" xml:space="preserve" xmlns:serif="http://www.serif.com/" style="fill-rule:evenodd;clip-rule:evenodd;stroke-linejoin:round;stroke-miterlimit:2;">
    <g transform="matrix(1,0,0,1,-1358,-270)">
        <g id="Y" transform="matrix(-1,0,0,-1,2120.75,403.224)">
            <path d="M672.913,73.931C672.913,73.931 738.676,72.044 751.609,71.673C754.044,71.603 756.47,71.991 758.761,72.815C761.3,73.729 762.401,75.047 762.662,77.884C762.948,80.991 759.192,85.816 754.042,86.002C754.042,86.002 691.208,88.948 683.629,89.303C683.202,89.323 682.857,89.656 682.822,90.082C682.425,94.871 680.233,121.374 679.702,127.793C679.614,128.864 679.072,129.846 678.213,130.492C676.273,131.94 673.799,132.681 671.225,132.511C666.45,132.197 664.747,130.157 663.49,127.709C663.08,126.927 662.919,126.038 663.03,125.162C663.966,117.75 668.799,79.77 668.799,79.77C669.089,77.387 668.886,76.269 669.778,75.245C670.782,74.094 671.659,73.928 672.913,73.931Z" style="fill-opacity:0.97;"/>
        </g>
    </g>
</svg>
