<?xml version="1.0" encoding="UTF-8" standalone="no"?>
<!DOCTYPE svg PUBLIC "-//W3C//DTD SVG 1.1//EN" "http://www.w3.org/Graphics/SVG/1.1/DTD/svg11.dtd">
<svg width="100%" height="100%" viewBox="0 0 76 67" version="1.1" xmlns="http://www.w3.org/2000/svg" xmlns:xlink="http://www.w3.org/1999/xlink" xml:space="preserve" xmlns:serif="http://www.serif.com/" style="fill-rule:evenodd;clip-rule:evenodd;stroke-linejoin:round;stroke-miterlimit:2;">
    <g transform="matrix(1,0,0,1,-1489,-264)">
        <path id="Z" d="M1493.1,264.668C1497.3,264.487 1534.13,263.517 1540.38,265.332C1546.4,267.081 1550.25,270.989 1548.67,275.285C1547.24,279.195 1531.26,294.082 1519.94,304.017C1519.4,304.491 1519.13,305.197 1519.2,305.912C1519.27,306.627 1519.68,307.264 1520.31,307.62C1527.17,309.369 1542.82,309.69 1560.76,309.632C1561.84,309.629 1562.79,310.388 1563.01,311.452C1564.33,317.631 1564.93,323.453 1564.48,328.747C1564.37,329.843 1563.44,330.669 1562.34,330.641C1532.07,329.895 1508.41,328.14 1499.73,321.403C1494.3,317.181 1494.31,311.607 1497.91,306.307C1503.99,297.353 1515.48,289.157 1523.21,280.388C1523.56,279.969 1523.64,279.385 1523.41,278.887C1523.19,278.388 1522.7,278.063 1522.15,278.052C1510.38,277.797 1498.65,277.187 1493.76,276.28C1487.57,275.132 1487.9,264.892 1493.1,264.668Z"/>
    </g>
</svg>
